<svg
                width="24"
                height="24"
                viewBox="0 0 363 245"
                fill="none"
                xmlns="http://www.w3.org/2000/svg"
            >
                <path
                    d="M264.925 59.291L267.856 60.5522C269.096 61.0857 270.385 61.3378 271.654 61.3381C275.383 61.3391 278.934 59.1585 280.502 55.5154C282.603 50.6327 280.348 44.9707 275.465 42.8702L272.534 41.6085C267.651 39.5075 261.99 41.7626 259.889 46.6453C257.787 51.5285 260.043 57.19 264.925 59.291Z"
                    fill="#0DC0AF"
                />
                <path
                    d="M349.472 136.481L349.487 81.0569C349.488 75.741 345.181 71.4307 339.864 71.4293L174.918 71.3854C169.602 71.384 165.292 75.6919 165.291 81.0078C165.289 86.3237 169.597 90.634 174.913 90.6354L293.101 90.6669L174.9 141.447L34.3397 80.9729L174.932 20.5736L238.024 47.7179C242.907 49.8185 248.568 47.5634 250.669 42.6802C252.769 37.7975 250.514 32.1355 245.632 30.035L178.738 1.2548C176.312 0.210804 173.562 0.210072 171.135 1.25278L6.17069 72.123C2.63695 73.6413 0.345758 77.1177 0.344734 80.9639C0.34371 84.81 2.63305 88.2882 6.16598 89.8079L171.093 160.765C172.306 161.287 173.601 161.548 174.894 161.549C176.188 161.549 177.483 161.288 178.696 160.767L269.489 121.761L269.473 188.364C216.484 237.363 133.262 237.341 80.3009 188.313L80.3059 171.324C80.3073 166.008 75.9993 161.697 70.6834 161.696C65.368 161.695 61.0573 166.003 61.0559 171.318L61.0498 192.432C61.0491 195.018 62.0894 197.495 63.9359 199.306C93.7281 228.521 133.126 244.616 174.872 244.627C216.618 244.638 256.025 228.564 285.832 199.366C287.68 197.556 288.722 195.079 288.722 192.492L288.742 113.491L330.232 95.6659L330.222 136.475C322.38 140.117 316.925 148.063 316.922 157.264C316.92 166.706 323.96 191.549 339.832 191.554C355.703 191.558 362.756 166.718 362.759 157.276C362.762 148.076 357.312 140.128 349.472 136.481ZM339.838 169.702C337.969 166.028 336.172 160.351 336.173 157.269C336.173 155.247 337.82 153.601 339.842 153.602C341.865 153.602 343.51 155.249 343.509 157.271C343.508 160.353 341.707 166.029 339.838 169.702Z"
                    fill="#0DC0AF"
                />
                <path
                    d="M70.6866 151.672C76.0025 151.673 80.3127 147.365 80.3141 142.049L80.315 138.846C80.3164 133.53 76.0085 129.22 70.6926 129.219C65.3767 129.217 61.0664 133.525 61.065 138.841L61.0642 142.044C61.0627 147.36 65.3707 151.67 70.6866 151.672Z"
                    fill="#0DC0AF"
                />
            </svg>